<?xml version="1.0" encoding="UTF-8"?>
<svg id="Layer_1" xmlns="http://www.w3.org/2000/svg" version="1.1" xmlns:xlink="http://www.w3.org/1999/xlink" viewBox="0 0 384 98.25">
  <!-- Generator: Adobe Illustrator 29.7.1, SVG Export Plug-In . SVG Version: 2.1.1 Build 8)  -->
  <defs>
    <style>
      .st0 {
        fill: url(#linear-gradient2);
      }

      .st1 {
        fill: url(#linear-gradient10);
      }

      .st2 {
        fill: url(#linear-gradient21);
      }

      .st3 {
        fill: url(#linear-gradient27);
      }

      .st4 {
        fill: url(#linear-gradient26);
      }

      .st5 {
        fill: url(#linear-gradient1);
      }

      .st6 {
        fill: url(#linear-gradient9);
      }

      .st7 {
        fill: url(#linear-gradient18);
      }

      .st8 {
        fill: url(#linear-gradient23);
      }

      .st9 {
        fill: url(#linear-gradient8);
      }

      .st10 {
        fill: url(#linear-gradient11);
      }

      .st11 {
        fill: url(#linear-gradient16);
      }

      .st12 {
        fill: url(#linear-gradient24);
      }

      .st13 {
        fill: url(#linear-gradient22);
      }

      .st14 {
        fill: url(#linear-gradient29);
      }

      .st15 {
        fill: url(#linear-gradient19);
      }

      .st16 {
        fill: url(#linear-gradient12);
      }

      .st17 {
        fill: url(#linear-gradient28);
      }

      .st18 {
        fill: url(#linear-gradient7);
      }

      .st19 {
        fill: url(#linear-gradient20);
      }

      .st20 {
        fill: url(#linear-gradient4);
      }

      .st21 {
        fill: url(#linear-gradient14);
      }

      .st22 {
        fill: url(#linear-gradient5);
      }

      .st23 {
        fill: url(#linear-gradient3);
      }

      .st24 {
        fill: url(#linear-gradient25);
      }

      .st25 {
        fill: url(#linear-gradient15);
      }

      .st26 {
        fill: url(#linear-gradient17);
      }

      .st27 {
        fill: url(#linear-gradient6);
      }

      .st28 {
        fill: url(#linear-gradient13);
      }

      .st29 {
        fill: url(#linear-gradient);
      }
    </style>
    <linearGradient id="linear-gradient" x1="26.51" y1="59.36" x2="361.79" y2="59.36" gradientUnits="userSpaceOnUse">
      <stop offset="0" stop-color="#b88e31"/>
      <stop offset="0" stop-color="#c8a760"/>
      <stop offset=".5" stop-color="#fede9f"/>
      <stop offset="1" stop-color="#b88e31"/>
    </linearGradient>
    <linearGradient id="linear-gradient1" x1="26.51" y1="65.02" x2="361.79" y2="65.02" xlink:href="#linear-gradient"/>
    <linearGradient id="linear-gradient2" x1="26.51" y1="65.02" x2="361.79" y2="65.02" xlink:href="#linear-gradient"/>
    <linearGradient id="linear-gradient3" x1="26.51" y1="65.02" x2="361.79" y2="65.02" xlink:href="#linear-gradient"/>
    <linearGradient id="linear-gradient4" x1="26.51" y1="65.02" x2="361.79" y2="65.02" xlink:href="#linear-gradient"/>
    <linearGradient id="linear-gradient5" x1="26.51" y1="65.02" x2="361.79" y2="65.02" xlink:href="#linear-gradient"/>
    <linearGradient id="linear-gradient6" x1="26.51" x2="361.79" xlink:href="#linear-gradient"/>
    <linearGradient id="linear-gradient7" x1="26.51" y1="91.57" x2="361.79" y2="91.57" xlink:href="#linear-gradient"/>
    <linearGradient id="linear-gradient8" x1="26.51" y1="91.57" x2="361.79" y2="91.57" xlink:href="#linear-gradient"/>
    <linearGradient id="linear-gradient9" x1="26.51" y1="91.57" x2="361.79" y2="91.57" xlink:href="#linear-gradient"/>
    <linearGradient id="linear-gradient10" x1="26.51" y1="91.57" x2="361.79" y2="91.57" xlink:href="#linear-gradient"/>
    <linearGradient id="linear-gradient11" y1="91.57" x2="361.79" y2="91.57" xlink:href="#linear-gradient"/>
    <linearGradient id="linear-gradient12" x1="26.51" y1="65.02" x2="361.79" y2="65.02" xlink:href="#linear-gradient"/>
    <linearGradient id="linear-gradient13" x1="26.51" y1="50.22" x2="361.79" y2="50.22" xlink:href="#linear-gradient"/>
    <linearGradient id="linear-gradient14" x1="26.51" y1="65.02" x2="361.79" y2="65.02" xlink:href="#linear-gradient"/>
    <linearGradient id="linear-gradient15" x1="26.51" y1="50.22" x2="361.79" y2="50.22" xlink:href="#linear-gradient"/>
    <linearGradient id="linear-gradient16" x1="26.51" y1="65.02" x2="361.79" y2="65.02" xlink:href="#linear-gradient"/>
    <linearGradient id="linear-gradient17" x1="26.51" y1="65.02" x2="361.79" y2="65.02" xlink:href="#linear-gradient"/>
    <linearGradient id="linear-gradient18" x1="26.51" y1="22.98" x2="361.79" y2="22.98" xlink:href="#linear-gradient"/>
    <linearGradient id="linear-gradient19" y1="31.37" x2="361.79" y2="31.37" xlink:href="#linear-gradient"/>
    <linearGradient id="linear-gradient20" y1="22.98" x2="361.79" y2="22.98" xlink:href="#linear-gradient"/>
    <linearGradient id="linear-gradient21" y1="31.37" x2="361.79" y2="31.37" xlink:href="#linear-gradient"/>
    <linearGradient id="linear-gradient22" x1="26.51" y1="29.35" x2="361.79" y2="29.35" xlink:href="#linear-gradient"/>
    <linearGradient id="linear-gradient23" x1="26.51" y1="26.44" x2="361.79" y2="26.44" xlink:href="#linear-gradient"/>
    <linearGradient id="linear-gradient24" x1="26.51" y1="25.01" x2="361.79" y2="25.01" xlink:href="#linear-gradient"/>
    <linearGradient id="linear-gradient25" x1="26.51" y1="26.44" x2="361.79" y2="26.44" xlink:href="#linear-gradient"/>
    <linearGradient id="linear-gradient26" x1="26.51" y1="25.01" x2="361.79" y2="25.01" xlink:href="#linear-gradient"/>
    <linearGradient id="linear-gradient27" x1="26.51" y1="9.41" x2="361.79" y2="9.41" xlink:href="#linear-gradient"/>
    <linearGradient id="linear-gradient28" x1="26.51" y1="65.02" x2="361.79" y2="65.02" xlink:href="#linear-gradient"/>
    <linearGradient id="linear-gradient29" x1="26.51" y1="59.36" x2="361.79" y2="59.36" xlink:href="#linear-gradient"/>
  </defs>
  <polygon class="st29" points="29.75 43.01 29.75 45.99 32.88 45.99 32.88 72.72 29.75 72.72 29.75 75.71 42.02 75.71 42.02 72.72 38.89 72.72 38.89 45.99 42.02 45.99 42.02 43.01 29.75 43.01"/>
  <polygon class="st5" points="66.43 54.33 61 54.33 56.38 62.79 51.76 54.33 46.33 54.33 46.33 73.83 43.61 73.83 43.61 75.71 53.66 75.71 53.66 73.83 50.94 73.83 50.94 58.34 56.38 66.08 61.82 58.34 61.82 73.83 59.1 73.83 59.1 75.71 69.15 75.71 69.15 73.83 66.43 73.83 66.43 54.33"/>
  <path class="st0" d="M157.05,75.71h9.28v-1.89h-2.15l-7.69-19.5h-4.3l-7.06,19.5h-2.22v1.89h9.28v-1.89h-2.45l1.46-4.04h8.57l1.6,4.04h-4.31v1.89ZM151.87,67.9l3.42-9.44,3.72,9.44h-7.14Z"/>
  <path class="st23" d="M248.31,54.33h-4.3l-7.06,19.5h-2.22v1.89h9.28v-1.89h-2.45l1.46-4.04h8.57l1.6,4.04h-4.31v1.89h9.28v-1.89h-2.15l-7.69-19.5ZM243.7,67.9l3.42-9.44,3.72,9.44h-7.14Z"/>
  <path class="st20" d="M120.34,65.71h1.01c2.27-.12,4.08-2.62,4.08-5.69,0-1.5-.44-2.86-1.14-3.88-.77-1.11-1.87-1.81-3.09-1.81h-30.51v1.89h3.15v17.61h-3.15v1.89h20.07v-6.01h-1.89v4.13h-10.42v-7.86h5.72v2.67l5.01-3.61-5.01-3.61v2.67h-5.72v-7.86h20.71c1.21,0,2.19,1.7,2.19,3.8s-.98,3.8-2.19,3.8h-8.41v1.89h2.59l5.61,8.12h-2.19v1.89h11.95v-1.89h-2.76l-5.61-8.12Z"/>
  <path class="st22" d="M89.54,56.14c-.77-1.11-1.87-1.81-3.09-1.81h-15.46v1.89h3.01v17.61h-2.72v1.89h10.05v-1.89h-2.72v-8.12h7.99c2.27-.12,4.08-2.62,4.08-5.69,0-1.5-.44-2.86-1.14-3.88ZM84.41,63.82h-5.79v-7.61h5.79c1.21,0,2.19,1.7,2.19,3.8s-.98,3.8-2.19,3.8Z"/>
  <path class="st27" d="M186.95,66.81s0,0,0-.01h-1.89v5.92h-8.43v-26.73h3.13v-2.99h-12.28v2.99h3.13v26.73h-3.13v2.99h28.39c-4.92,0-8.91-3.98-8.92-8.9Z"/>
  <polygon class="st18" points="145.42 89.26 143.23 84.88 141.04 89.26 136.2 89.99 139.69 93.42 138.89 98.25 143.23 96 147.57 98.25 146.77 93.42 150.26 89.99 145.42 89.26"/>
  <polygon class="st9" points="169.68 89.26 167.49 84.88 165.3 89.26 160.46 89.99 163.95 93.42 163.15 98.25 167.49 96 171.83 98.25 171.03 93.42 174.52 89.99 169.68 89.26"/>
  <polygon class="st6" points="193.94 89.26 191.75 84.88 189.56 89.26 184.72 89.99 188.21 93.42 187.41 98.25 191.75 96 196.09 98.25 195.29 93.42 198.78 89.99 193.94 89.26"/>
  <polygon class="st1" points="218.2 89.26 216.01 84.88 213.82 89.26 208.99 89.99 212.47 93.42 211.67 98.25 216.01 96 220.35 98.25 219.55 93.42 223.04 89.99 218.2 89.26"/>
  <polygon class="st10" points="242.46 89.26 240.27 84.88 238.08 89.26 233.25 89.99 236.73 93.42 235.93 98.25 240.27 96 244.62 98.25 243.81 93.42 247.3 89.99 242.46 89.26"/>
  <polygon class="st16" points="130.17 73.83 130.17 75.71 139.45 75.71 139.45 73.83 136.89 73.83 136.89 56.21 139.39 56.21 139.39 54.33 130.12 54.33 130.12 56.21 132.73 56.21 132.73 73.83 130.17 73.83"/>
  <ellipse class="st28" cx="134.76" cy="50.22" rx="4.64" ry="2.34"/>
  <polygon class="st21" points="287.53 56.21 290.03 56.21 290.03 54.33 280.75 54.33 280.75 56.21 283.36 56.21 283.36 73.83 280.81 73.83 280.81 75.71 290.09 75.71 290.09 73.83 287.53 73.83 287.53 56.21"/>
  <ellipse class="st25" cx="285.39" cy="50.22" rx="4.64" ry="2.34"/>
  <path class="st11" d="M315.05,56.21h2.5v-1.89h-9.28v1.89h2.61v4.32s-3.96-6.21-8.74-6.21h-9.28v1.89h2.61v17.61h-2.56v1.89h9.28v-1.89h-2.56v-17.61h2.5s6.46,2.94,8.74,10.59v7.02h-2.56v1.89h9.28v-1.89h-2.56v-17.61Z"/>
  <path class="st26" d="M336.51,54.33c-9.8,0-17.74,4.79-17.74,10.69s7.94,10.69,17.74,10.69,17.74-4.79,17.74-10.69-7.94-10.69-17.74-10.69ZM336.51,73.83c-6.96,0-12.61-3.94-12.61-8.81s5.64-8.81,12.61-8.81,12.61,3.94,12.61,8.81-5.64,8.81-12.61,8.81Z"/>
  <path class="st7" d="M220.34,23.6h81.35c.34,0,.62-.28.62-.62s-.28-.62-.62-.62h-81.35c-.34,0-.62.28-.62.62s.28.62.62.62Z"/>
  <path class="st15" d="M212.11,30.75c-.34,0-.62.28-.62.62s.28.62.62.62h50.16c.34,0,.62-.28.62-.62s-.28-.62-.62-.62h-50.16Z"/>
  <path class="st19" d="M82.4,23.6h81.35c.34,0,.62-.28.62-.62s-.28-.62-.62-.62h-81.35c-.34,0-.62.28-.62.62s.28.62.62.62Z"/>
  <path class="st2" d="M172.59,31.37c0-.34-.28-.62-.62-.62h-50.16c-.34,0-.62.28-.62.62s.28.62.62.62h50.16c.34,0,.62-.28.62-.62Z"/>
  <path class="st13" d="M200.49,22.78c.16-.12.18-.35.04-.49l-2.26-2.26c-.06-.06-.14-.1-.23-.1h-11.37c-.09,0-.18.04-.24.11l-2.92,3.26c-.09.1-.11.24-.05.36l.99,1.98c.06.11.17.18.29.18h1.67c.18,0,.33-.15.33-.33v-1.15c0-.09.03-.17.09-.23l1.46-1.5c.06-.06.15-.1.23-.1h7.06c.29,0,.44.35.24.55-6.44,6.61-7.47,13.09-7.64,15.07-.03.33.24.61.57.61h4.58c.18,0,.32-.15.33-.33.11-10.16,5.47-14.67,6.84-15.66Z"/>
  <path class="st8" d="M204.04,31.05c-.01.17.12.32.3.32h2.4c.09,0,.17-.08.17-.17.06-5.32,2.87-7.68,3.58-8.2.09-.06.09-.18.02-.26l-1.18-1.18s-.08-.05-.12-.05h-5.96s-.1.02-.13.06l-1.53,1.71c-.05.05-.06.13-.03.19l.52,1.04c.03.06.09.09.15.09h.88c.09,0,.17-.08.17-.17v-.6s.02-.09.05-.12l.77-.78s.08-.05.12-.05h3.7c.15,0,.23.18.12.29-3.37,3.46-3.91,6.86-4,7.89Z"/>
  <path class="st12" d="M212.39,22.2l-.88.99s-.03.07-.01.11l.3.6s.05.05.09.05h.51c.05,0,.1-.04.1-.1v-.35s.01-.05.03-.07l.44-.45s.04-.03.07-.03h2.13c.09,0,.13.1.07.17-1.94,2-2.26,3.95-2.31,4.55,0,.1.07.19.17.19h1.38c.05,0,.1-.04.1-.1.03-3.07,1.65-4.43,2.07-4.73.05-.04.05-.11.01-.15l-.68-.68s-.04-.03-.07-.03h-3.44s-.05.01-.07.03Z"/>
  <path class="st24" d="M175.97,31.05c-.01.17.12.32.3.32h2.4c.09,0,.17-.08.17-.17.06-5.32,2.87-7.68,3.58-8.2.09-.06.09-.18.02-.26l-1.18-1.18s-.08-.05-.12-.05h-5.96s-.1.02-.13.06l-1.53,1.71c-.05.05-.06.13-.03.19l.52,1.04c.03.06.09.09.15.09h.88c.09,0,.17-.08.17-.17v-.6s.02-.09.05-.12l.77-.78s.08-.05.12-.05h3.7c.15,0,.23.18.12.29-3.37,3.46-3.91,6.86-4,7.89Z"/>
  <path class="st4" d="M167.67,23.9s.05.05.09.05h.51c.05,0,.1-.04.1-.1v-.35s.01-.05.03-.07l.44-.45s.04-.03.07-.03h2.13c.09,0,.13.1.07.17-1.94,2-2.26,3.95-2.31,4.55,0,.1.07.19.17.19h1.38c.05,0,.1-.04.1-.1.03-3.07,1.65-4.43,2.07-4.73.05-.04.05-.11.01-.15l-.68-.68s-.04-.03-.07-.03h-3.44s-.05.01-.07.03l-.88.99s-.03.07-.01.11l.3.6Z"/>
  <path class="st3" d="M176.51,18.82h31.07v-1.6h0c.18-2.75,1.38-8.39,7.98-11.4,0,0-4.4-2.04-8.22,2.28,0,0-2.77-2.88-5.4-1.16,1.42.57,2.41,1.81,2.41,3.25,0,1.98-1.87,3.59-4.17,3.59s-4.17-1.61-4.17-3.59c0-1.67,1.32-3.07,3.12-3.47-.31-.31-1.06-.83-2.64-.83h-2.87s.22-5.07-1.58-5.9c-1.8.83-1.58,5.9-1.58,5.9h-2.87c-1.59,0-2.34.51-2.64.83,1.79.4,3.12,1.8,3.12,3.47,0,1.98-1.87,3.59-4.17,3.59s-4.17-1.61-4.17-3.59c0-1.44.99-2.68,2.41-3.25-2.63-1.73-5.4,1.16-5.4,1.16-3.81-4.32-8.22-2.28-8.22-2.28,8.96,4.09,7.98,13,7.98,13Z"/>
  <path class="st17" d="M271.75,61.09s-1.13-.16-4.31-.16c-1.5,0-2.71-1.21-2.71-2.71s1.21-2.71,2.71-2.71c1.26,0,2.31.86,2.62,2.02h2.6s.28-2.49,1.47-3.2h-3.97v.89s-.62-.89-3.68-.89-5.67,1.65-5.67,4.56,1.7,4.82,5.4,4.82,6.68,1.3,6.68,5.13-3.49,4.51-4.74,4.51-4.4-1.18-4.4-1.18v-2.91h-3.59v6.45h3.67v-1.52s2.96,1.52,6.05,1.52,8.99-1.21,8.99-7.31-7.1-7.31-7.1-7.31Z"/>
  <path class="st14" d="M226.67,45.06c-2.93-1.31-6.31-2.05-9.91-2.05-11.28,0-20.43,7.32-20.43,16.35s9.15,16.35,20.43,16.35c3.6,0,6.97-.75,9.91-2.05v2.05h5.36v-7.44h-5.36v2.89c-2.33,1.67-5.18,2.66-8.27,2.66-7.84,0-14.2-6.36-14.2-14.2s6.36-14.2,14.2-14.2c3.09,0,5.94.99,8.27,2.66v2.36h5.36v-7.44h-5.36v2.05Z"/>
</svg>