<?xml version="1.0" encoding="UTF-8"?>
<svg id="Layer_1" xmlns="http://www.w3.org/2000/svg" version="1.1" xmlns:xlink="http://www.w3.org/1999/xlink" viewBox="0 0 32 32">
  <!-- Generator: Adobe Illustrator 29.7.1, SVG Export Plug-In . SVG Version: 2.1.1 Build 8)  -->
  <defs>
    <style>
      .st0 {
        fill: url(#linear-gradient2);
      }

      .st1 {
        fill: url(#linear-gradient1);
      }

      .st2 {
        fill: url(#linear-gradient4);
      }

      .st3 {
        fill: url(#linear-gradient5);
      }

      .st4 {
        fill: url(#linear-gradient3);
      }

      .st5 {
        fill: url(#linear-gradient);
      }
    </style>
    <linearGradient id="linear-gradient" x1="-.12" y1="9.41" x2="32.14" y2="9.41" gradientTransform="translate(0 31.89) scale(1 -1)" gradientUnits="userSpaceOnUse">
      <stop offset="0" stop-color="#b88e31"/>
      <stop offset="0" stop-color="#c8a760"/>
      <stop offset=".5" stop-color="#fede9f"/>
      <stop offset="1" stop-color="#b88e31"/>
    </linearGradient>
    <linearGradient id="linear-gradient1" x1="-.12" y1="11.31" x2="32.14" y2="11.31" gradientTransform="translate(0 31.89) scale(1 -1)" gradientUnits="userSpaceOnUse">
      <stop offset="0" stop-color="#b88e31"/>
      <stop offset="0" stop-color="#c8a760"/>
      <stop offset=".5" stop-color="#fede9f"/>
      <stop offset="1" stop-color="#b88e31"/>
    </linearGradient>
    <linearGradient id="linear-gradient2" x1="-.12" y1="12.22" x2="32.14" y2="12.22" gradientTransform="translate(0 31.89) scale(1 -1)" gradientUnits="userSpaceOnUse">
      <stop offset="0" stop-color="#b88e31"/>
      <stop offset="0" stop-color="#c8a760"/>
      <stop offset=".5" stop-color="#fede9f"/>
      <stop offset="1" stop-color="#b88e31"/>
    </linearGradient>
    <linearGradient id="linear-gradient3" x1="-.12" y1="11.31" x2="32.14" y2="11.31" gradientTransform="translate(0 31.89) scale(1 -1)" gradientUnits="userSpaceOnUse">
      <stop offset="0" stop-color="#b88e31"/>
      <stop offset="0" stop-color="#c8a760"/>
      <stop offset=".5" stop-color="#fede9f"/>
      <stop offset="1" stop-color="#b88e31"/>
    </linearGradient>
    <linearGradient id="linear-gradient4" x1="-.12" y1="12.22" x2="32.14" y2="12.22" gradientTransform="translate(0 31.89) scale(1 -1)" gradientUnits="userSpaceOnUse">
      <stop offset="0" stop-color="#b88e31"/>
      <stop offset="0" stop-color="#c8a760"/>
      <stop offset=".5" stop-color="#fede9f"/>
      <stop offset="1" stop-color="#b88e31"/>
    </linearGradient>
    <linearGradient id="linear-gradient5" x1="-.12" y1="22.37" x2="32.14" y2="22.37" gradientTransform="translate(0 31.89) scale(1 -1)" gradientUnits="userSpaceOnUse">
      <stop offset="0" stop-color="#b88e31"/>
      <stop offset="0" stop-color="#c8a760"/>
      <stop offset=".5" stop-color="#fede9f"/>
      <stop offset="1" stop-color="#b88e31"/>
    </linearGradient>
  </defs>
  <path class="st5" d="M21.49,18.21c.11-.08.12-.23.02-.32l-1.47-1.47s-.09-.06-.15-.06h-7.38c-.06,0-.12.03-.16.07l-1.89,2.12c-.06.06-.07.16-.03.24l.64,1.28c.04.07.11.12.19.12h1.09c.12,0,.21-.09.21-.21v-.75c0-.06.02-.11.06-.15l.95-.97s.09-.06.15-.06h4.58c.19,0,.28.22.15.36-4.18,4.29-4.85,8.49-4.96,9.78-.02.21.15.4.37.4h2.97c.12,0,.21-.09.21-.21.07-6.59,3.55-9.52,4.44-10.16h.01Z"/>
  <path class="st1" d="M23.8,23.57c0,.11.08.21.19.21h1.56c.06,0,.11-.05.11-.11.04-3.45,1.86-4.98,2.33-5.32.06-.04.06-.12.01-.17l-.77-.77s-.05-.03-.08-.03h-3.87s-.06.01-.08.04l-.99,1.11s-.04.08-.02.12l.34.67s.06.06.1.06h.57c.06,0,.11-.05.11-.11v-.39s.01-.06.03-.08l.5-.51s.05-.03.08-.03h2.4c.1,0,.15.12.08.19-2.19,2.25-2.54,4.45-2.6,5.12Z"/>
  <path class="st0" d="M29.22,17.83l-.57.64s-.02.05,0,.07l.19.39s.03.04.06.04h.33s.06-.03.06-.06v-.23s0-.03.02-.04l.29-.29s.03-.02.05-.02h1.38c.06,0,.09.07.05.11-1.26,1.3-1.46,2.57-1.5,2.95,0,.06.05.12.11.12h.9s.06-.03.06-.06c.02-1.99,1.07-2.87,1.34-3.07.03-.02.04-.07,0-.1l-.44-.44s-.03-.02-.05-.02h-2.23s-.04,0-.05.02h0Z"/>
  <path class="st4" d="M5.59,23.57c0,.11.08.21.19.21h1.56c.06,0,.11-.05.11-.11.04-3.45,1.86-4.98,2.33-5.32.06-.04.06-.12.01-.17l-.77-.77s-.05-.03-.08-.03h-3.87s-.06.01-.08.04l-.99,1.11s-.04.08-.02.12l.34.67s.06.06.1.06h.57c.06,0,.11-.05.11-.11v-.39s.01-.06.03-.08l.5-.51s.05-.03.08-.03h2.4c.1,0,.15.12.08.19-2.19,2.25-2.54,4.45-2.6,5.12Z"/>
  <path class="st2" d="M.2,18.93s.03.04.06.04h.33s.06-.03.06-.06v-.23s0-.03.02-.04l.29-.29s.03-.02.05-.02h1.38c.06,0,.09.07.05.11-1.26,1.3-1.46,2.57-1.5,2.95,0,.06.05.12.11.12h.9s.06-.03.06-.06c.02-1.99,1.07-2.87,1.34-3.07.03-.02.04-.07,0-.1l-.44-.44s-.03-.02-.05-.02H.64s-.04,0-.05.02l-.57.64S0,18.53.02,18.55l.19.39h0Z"/>
  <path class="st3" d="M5.93,15.63h20.16v-1.04h0c.11-1.79.89-5.44,5.18-7.4,0,0-2.86-1.33-5.33,1.48,0,0-1.8-1.87-3.5-.75.92.37,1.56,1.18,1.56,2.11,0,1.29-1.21,2.33-2.7,2.33s-2.7-1.04-2.7-2.33c0-1.08.86-1.99,2.02-2.25-.2-.2-.68-.54-1.72-.54h-1.86s.14-3.29-1.02-3.83c-1.17.54-1.02,3.83-1.02,3.83h-1.86c-1.03,0-1.52.33-1.72.54,1.16.26,2.02,1.17,2.02,2.25,0,1.29-1.21,2.33-2.7,2.33s-2.7-1.04-2.7-2.33c0-.94.64-1.74,1.56-2.11-1.71-1.12-3.5.75-3.5.75C3.61,5.87.76,7.2.76,7.2c5.82,2.65,5.18,8.43,5.18,8.43h0Z"/>
</svg>